<mxfile host="app.diagrams.net" agent="Mozilla/5.0 (Windows NT 10.0; Win64; x64) AppleWebKit/537.36 (KHTML, like Gecko) Chrome/129.0.0.0 Safari/537.36" version="24.7.16">
  <diagram id="WI9T0HZ2pTsCkuznbFz-" name="Page-1">
    <mxGraphModel dx="1290" dy="558" grid="0" gridSize="10" guides="1" tooltips="1" connect="1" arrows="1" fold="1" page="1" pageScale="1" pageWidth="1169" pageHeight="827" math="0" shadow="0">
      <root>
        <mxCell id="0" />
        <mxCell id="1" parent="0" />
        <mxCell id="ZrS8A59r-pDNsWLhv5a3-2" value="" style="sketch=0;aspect=fixed;pointerEvents=1;shadow=0;dashed=0;html=1;strokeColor=none;labelPosition=center;verticalLabelPosition=bottom;verticalAlign=top;align=center;fillColor=#00188D;shape=mxgraph.mscae.enterprise.application_server2" vertex="1" parent="1">
          <mxGeometry x="230" y="285" width="77.4" height="90" as="geometry" />
        </mxCell>
        <mxCell id="ZrS8A59r-pDNsWLhv5a3-8" value="&lt;font style=&quot;vertical-align: inherit;&quot;&gt;&lt;font style=&quot;vertical-align: inherit;&quot;&gt;&lt;font style=&quot;vertical-align: inherit;&quot;&gt;Diretório&lt;/font&gt;&lt;/font&gt;&lt;/font&gt;&lt;div&gt;&lt;font style=&quot;vertical-align: inherit;&quot;&gt;&lt;font style=&quot;vertical-align: inherit;&quot;&gt;&lt;font style=&quot;vertical-align: inherit;&quot;&gt;Instalação&amp;nbsp;&lt;/font&gt;&lt;/font&gt;&lt;/font&gt;&lt;span style=&quot;background-color: initial;&quot;&gt;&amp;nbsp;&lt;font style=&quot;vertical-align: inherit;&quot;&gt;&lt;font style=&quot;vertical-align: inherit;&quot;&gt; SATI&lt;/font&gt;&lt;/font&gt;&lt;/span&gt;&lt;/div&gt;&lt;div&gt;&lt;span style=&quot;background-color: initial;&quot;&gt;&lt;font style=&quot;vertical-align: inherit;&quot;&gt;&lt;font style=&quot;vertical-align: inherit;&quot;&gt;(Aspen.ini)&lt;/font&gt;&lt;/font&gt;&lt;/span&gt;&lt;/div&gt;" style="sketch=0;pointerEvents=1;shadow=0;dashed=0;html=1;strokeColor=none;labelPosition=center;verticalLabelPosition=bottom;verticalAlign=top;outlineConnect=0;align=center;shape=mxgraph.office.concepts.folder;fillColor=#7FBA42;" vertex="1" parent="1">
          <mxGeometry x="410" y="310" width="25" height="20" as="geometry" />
        </mxCell>
        <mxCell id="ZrS8A59r-pDNsWLhv5a3-9" value="&lt;font style=&quot;vertical-align: inherit;&quot;&gt;&lt;font style=&quot;vertical-align: inherit;&quot;&gt;&lt;font style=&quot;vertical-align: inherit;&quot;&gt;Diretório&lt;/font&gt;&lt;/font&gt;&lt;/font&gt;&lt;div&gt;&lt;font style=&quot;vertical-align: inherit;&quot;&gt;&lt;font style=&quot;vertical-align: inherit;&quot;&gt;&lt;font style=&quot;vertical-align: inherit;&quot;&gt;Client Oracle&lt;/font&gt;&lt;/font&gt;&lt;/font&gt;&lt;/div&gt;&lt;div&gt;&lt;font style=&quot;vertical-align: inherit;&quot;&gt;&lt;font style=&quot;vertical-align: inherit;&quot;&gt;&lt;font style=&quot;vertical-align: inherit;&quot;&gt;(TNSNames)&lt;/font&gt;&lt;/font&gt;&lt;/font&gt;&lt;/div&gt;" style="sketch=0;pointerEvents=1;shadow=0;dashed=0;html=1;strokeColor=none;labelPosition=center;verticalLabelPosition=bottom;verticalAlign=top;outlineConnect=0;align=center;shape=mxgraph.office.concepts.folder;fillColor=#DA4026;" vertex="1" parent="1">
          <mxGeometry x="562" y="310" width="25" height="20" as="geometry" />
        </mxCell>
        <mxCell id="ZrS8A59r-pDNsWLhv5a3-10" value="" style="endArrow=classic;html=1;rounded=0;edgeStyle=orthogonalEdgeStyle;" edge="1" parent="1">
          <mxGeometry width="50" height="50" relative="1" as="geometry">
            <mxPoint x="320" y="329.5" as="sourcePoint" />
            <mxPoint x="390" y="330" as="targetPoint" />
            <Array as="points">
              <mxPoint x="320" y="329.5" />
            </Array>
          </mxGeometry>
        </mxCell>
        <mxCell id="ZrS8A59r-pDNsWLhv5a3-11" value="" style="endArrow=classic;html=1;rounded=0;edgeStyle=orthogonalEdgeStyle;" edge="1" parent="1">
          <mxGeometry width="50" height="50" relative="1" as="geometry">
            <mxPoint x="460" y="329" as="sourcePoint" />
            <mxPoint x="530" y="329.5" as="targetPoint" />
            <Array as="points">
              <mxPoint x="460" y="329" />
            </Array>
          </mxGeometry>
        </mxCell>
        <mxCell id="ZrS8A59r-pDNsWLhv5a3-12" value="Servidor de Aplicação" style="swimlane;" vertex="1" parent="1">
          <mxGeometry x="190" y="220" width="460" height="200" as="geometry" />
        </mxCell>
        <mxCell id="ZrS8A59r-pDNsWLhv5a3-13" value="Servidor de Banco de Dados" style="swimlane;" vertex="1" parent="1">
          <mxGeometry x="790" y="220" width="460" height="200" as="geometry" />
        </mxCell>
        <mxCell id="ZrS8A59r-pDNsWLhv5a3-6" value="" style="sketch=0;shadow=0;dashed=0;html=1;strokeColor=none;fillColor=#505050;labelPosition=center;verticalLabelPosition=bottom;verticalAlign=top;outlineConnect=0;align=center;shape=mxgraph.office.databases.database_server_orange;" vertex="1" parent="ZrS8A59r-pDNsWLhv5a3-13">
          <mxGeometry x="284" y="56" width="70" height="100" as="geometry" />
        </mxCell>
        <mxCell id="ZrS8A59r-pDNsWLhv5a3-15" value="Banco de Dados&lt;div&gt;SATI&lt;/div&gt;" style="sketch=0;outlineConnect=0;fontColor=#232F3E;gradientColor=none;fillColor=#232F3D;strokeColor=none;dashed=0;verticalLabelPosition=bottom;verticalAlign=top;align=center;html=1;fontSize=12;fontStyle=0;aspect=fixed;pointerEvents=1;shape=mxgraph.aws4.generic_database;" vertex="1" parent="ZrS8A59r-pDNsWLhv5a3-13">
          <mxGeometry x="90" y="90" width="28.74" height="38" as="geometry" />
        </mxCell>
        <mxCell id="ZrS8A59r-pDNsWLhv5a3-16" value="" style="endArrow=classic;html=1;rounded=0;edgeStyle=orthogonalEdgeStyle;" edge="1" parent="ZrS8A59r-pDNsWLhv5a3-13">
          <mxGeometry width="50" height="50" relative="1" as="geometry">
            <mxPoint x="260" y="108.5" as="sourcePoint" />
            <mxPoint x="150" y="108.5" as="targetPoint" />
            <Array as="points">
              <mxPoint x="195" y="108" />
            </Array>
          </mxGeometry>
        </mxCell>
        <mxCell id="ZrS8A59r-pDNsWLhv5a3-17" value="" style="shape=flexArrow;endArrow=classic;html=1;rounded=0;edgeStyle=orthogonalEdgeStyle;" edge="1" parent="1">
          <mxGeometry width="50" height="50" relative="1" as="geometry">
            <mxPoint x="660" y="309" as="sourcePoint" />
            <mxPoint x="780" y="309" as="targetPoint" />
            <Array as="points">
              <mxPoint x="780" y="309" />
            </Array>
          </mxGeometry>
        </mxCell>
      </root>
    </mxGraphModel>
  </diagram>
</mxfile>
